# xmcd
#
# Track frame offsets: 
#        150
#        61409
#        119070
#
# Disc length: 2127 seconds
#
# Revision: 0
# Processed by: cddbd v1.5.2PL0 Copyright (c) Steve Scherf et al.
# Submitted via: ExactAudioCopy v0.99pb5
#
DISCID=28084d03
DTITLE=Jujja Wieslander - Mama Muh will rutschen
DYEAR=2004
DGENRE=Alt. Rock
TTITLE0=Mama Muh will rutschen
TTITLE1=Die Müllabfuhr
TTITLE2=Regen und regnen
EXTD=
EXTT0=
EXTT1=
EXTT2=
PLAYORDER=
